<?xml version="1.0" standalone="no"?>
<!DOCTYPE svg PUBLIC "-//W3C//DTD SVG 20010904//EN"
 "http://www.w3.org/TR/2001/REC-SVG-20010904/DTD/svg10.dtd">
<svg version="1.0" xmlns="http://www.w3.org/2000/svg"
 width="500.000000pt" height="500.000000pt" viewBox="0 0 500.000000 500.000000"
 preserveAspectRatio="xMidYMid meet">

<g transform="translate(0.000000,500.000000) scale(0.100000,-0.100000)"
fill="#000000" stroke="none">
<path d="M1680 2997 c0 -596 3 -786 12 -795 9 -9 204 -12 815 -12 l803 0 0 45
0 45 -770 0 -770 0 0 160 0 161 33 32 c18 18 69 66 113 107 43 41 136 128 205
195 69 66 142 135 162 154 l36 34 38 -25 c177 -117 278 -178 293 -178 10 0 28
12 40 28 12 15 36 43 53 62 18 19 75 85 127 145 52 61 97 112 100 115 3 3 48
54 99 113 l94 108 33 -32 c18 -17 37 -28 43 -25 6 4 11 27 11 51 0 24 5 78 11
120 6 42 8 79 5 82 -4 5 -81 -19 -203 -64 -24 -9 -43 -18 -43 -22 0 -3 16 -17
35 -30 19 -13 35 -26 35 -30 0 -3 -15 -22 -33 -41 -18 -19 -100 -111 -182
-205 -179 -205 -234 -265 -242 -265 -4 0 -73 43 -154 95 -80 52 -155 95 -167
95 -13 0 -113 -89 -279 -246 l-258 -247 -3 527 -2 526 -45 0 -45 0 0 -783z"/>
<path d="M3030 2555 l0 -205 90 0 90 0 0 205 0 205 -90 0 -90 0 0 -205z m110
25 c0 -13 7 -20 20 -20 11 0 20 -7 20 -15 0 -8 -9 -15 -20 -15 -13 0 -20 -7
-20 -20 0 -11 -7 -20 -15 -20 -8 0 -15 9 -15 19 0 12 -8 21 -22 23 -32 5 -35
28 -4 28 19 0 26 5 26 20 0 11 7 20 15 20 8 0 15 -9 15 -20z"/>
<path d="M1243 1735 c-68 -29 -84 -105 -34 -156 33 -33 83 -39 117 -15 27 20
10 31 -25 17 -46 -20 -91 14 -91 69 0 28 46 74 66 66 45 -17 64 -18 64 -2 0 9
-1 16 -3 16 -1 0 -16 4 -33 9 -21 6 -40 4 -61 -4z"/>
<path d="M1407 1649 c-37 -87 -42 -129 -10 -81 12 18 25 22 64 22 39 0 49 -4
54 -20 3 -11 13 -20 21 -20 16 0 18 13 4 38 -5 9 -23 47 -39 85 -16 37 -36 67
-43 67 -7 0 -30 -41 -51 -91z m72 10 c6 -18 11 -34 11 -35 0 -2 -13 -4 -30 -4
-33 0 -36 7 -18 45 15 33 24 32 37 -6z"/>
<path d="M1590 1645 l0 -95 60 0 c47 0 60 3 60 15 0 11 -12 15 -45 15 l-45 0
0 80 c0 64 -3 80 -15 80 -12 0 -15 -17 -15 -95z"/>
<path d="M1759 1711 c-21 -22 -29 -39 -29 -66 0 -72 89 -122 146 -81 27 20 10
31 -26 16 -25 -10 -34 -10 -55 4 -71 47 -18 156 61 125 32 -11 42 -5 24 16 -7
9 -29 15 -52 15 -30 0 -46 -7 -69 -29z"/>
<path d="M1940 1666 c0 -63 4 -80 20 -96 26 -26 80 -26 108 0 19 18 22 32 22
95 0 60 -3 75 -15 75 -12 0 -15 -15 -15 -74 0 -68 -2 -75 -22 -82 -23 -8 -48
-7 -58 3 -3 2 -7 37 -10 76 -3 44 -10 72 -17 75 -10 3 -13 -16 -13 -72z"/>
<path d="M2154 1727 c-3 -8 -4 -49 -2 -93 l3 -79 58 -3 c46 -2 57 0 57 13 0
11 -11 15 -45 15 l-45 0 0 80 c0 48 -4 80 -10 80 -6 0 -13 -6 -16 -13z"/>
<path d="M2326 1650 c-37 -87 -41 -131 -9 -82 12 18 25 22 64 22 39 0 49 -4
54 -20 6 -19 35 -29 35 -12 0 8 -61 151 -73 170 -18 27 -34 8 -71 -78z m72 17
c16 -46 16 -47 -18 -47 -16 0 -30 3 -30 7 0 14 24 73 30 73 3 0 11 -15 18 -33z"/>
<path d="M2510 1645 l0 -95 45 0 c59 0 91 16 110 55 18 40 18 47 3 80 -16 35
-57 55 -113 55 l-45 0 0 -95z m114 49 c21 -20 20 -73 -1 -96 -9 -10 -30 -18
-50 -18 l-33 0 0 65 0 65 34 0 c19 0 42 -7 50 -16z"/>
<path d="M2751 1714 c-26 -21 -31 -33 -31 -69 0 -85 92 -127 157 -71 23 20 28
32 28 71 0 39 -5 51 -28 71 -38 32 -86 32 -126 -2z m118 -35 c39 -71 -47 -140
-104 -83 -20 21 -19 73 2 96 25 28 83 21 102 -13z"/>
<path d="M2960 1645 c0 -78 3 -95 15 -95 10 0 15 11 15 35 0 30 3 35 23 35 14
0 30 -12 45 -35 12 -19 29 -35 37 -35 20 0 19 6 -5 41 l-21 28 21 21 c25 25
26 54 0 80 -15 15 -33 20 -75 20 l-55 0 0 -95z m115 55 c3 -6 3 -19 0 -30 -5
-16 -15 -20 -46 -20 -37 0 -39 2 -39 30 0 28 2 30 39 30 22 0 43 -5 46 -10z"/>
<path d="M3175 1650 c-36 -86 -40 -131 -8 -82 12 18 25 22 64 22 39 0 49 -4
54 -20 3 -11 13 -20 22 -20 8 0 13 4 11 9 -49 129 -75 181 -89 181 -11 0 -29
-29 -54 -90z m74 9 c6 -18 11 -34 11 -35 0 -2 -16 -4 -35 -4 l-35 0 17 35 c21
43 28 44 42 4z"/>
<path d="M3442 1648 l3 -93 45 -3 c88 -5 143 63 108 134 -17 37 -52 54 -111
54 l-48 0 3 -92z m118 42 c43 -43 10 -110 -55 -110 l-35 0 0 65 0 65 35 0 c22
0 43 -8 55 -20z"/>
<path d="M3660 1645 l0 -95 70 0 c56 0 70 3 70 15 0 12 -13 15 -55 15 -52 0
-55 1 -55 25 0 23 4 25 45 25 33 0 45 4 45 15 0 11 -12 15 -45 15 -41 0 -45 2
-45 25 0 24 3 25 55 25 42 0 55 3 55 15 0 12 -14 15 -70 15 l-70 0 0 -95z"/>
<path d="M970 1325 c0 -78 3 -95 15 -95 11 0 15 11 15 40 l0 40 45 0 c33 0 45
4 45 15 0 11 -12 15 -45 15 -41 0 -45 2 -45 25 0 23 3 25 50 25 38 0 50 4 50
15 0 12 -14 15 -65 15 l-65 0 0 -95z"/>
<path d="M1163 1396 c-23 -20 -28 -32 -28 -71 0 -39 5 -51 28 -71 75 -64 183
6 156 101 -19 66 -101 88 -156 41z m91 -7 c34 -16 52 -60 35 -91 -16 -31 -28
-38 -66 -38 -22 0 -37 7 -47 22 -28 39 -17 80 29 106 25 14 20 14 49 1z"/>
<path d="M1380 1325 c0 -76 3 -95 15 -95 11 0 15 16 17 67 l3 67 50 -67 c28
-36 56 -66 63 -67 9 0 12 25 12 95 0 76 -3 95 -15 95 -10 0 -15 -16 -17 -62
l-3 -63 -49 63 c-27 34 -55 62 -63 62 -10 0 -13 -22 -13 -95z"/>
<path d="M1610 1325 l0 -97 55 4 c73 6 105 34 105 93 0 59 -32 87 -105 93
l-55 4 0 -97z m112 48 c42 -38 10 -113 -48 -113 l-34 0 0 65 0 65 32 0 c17 0
40 -7 50 -17z"/>
<path d="M1845 1396 c-36 -36 -42 -73 -19 -115 22 -40 59 -56 110 -47 69 13
94 116 40 163 -38 32 -98 31 -131 -1z m89 -7 c34 -16 52 -60 35 -91 -16 -31
-28 -38 -67 -38 -28 0 -35 5 -47 35 -21 48 -1 87 52 104 1 1 13 -4 27 -10z"/>
<path d="M2064 1395 c-15 -22 -15 -27 -1 -48 8 -13 34 -29 57 -36 30 -9 40
-17 38 -29 -4 -20 -62 -29 -82 -12 -10 8 -15 7 -19 -5 -13 -33 87 -50 117 -19
33 33 5 94 -44 94 -9 0 -25 6 -35 14 -17 12 -17 16 -5 31 13 16 35 16 73 0 12
-5 17 -3 17 8 0 18 -21 27 -66 27 -25 0 -38 -6 -50 -25z"/>
<path d="M2320 1325 c0 -78 3 -95 15 -95 12 0 15 17 15 95 0 78 -3 95 -15 95
-12 0 -15 -17 -15 -95z"/>
<path d="M2420 1325 c0 -76 3 -95 15 -95 10 0 15 16 17 65 l3 65 50 -64 c28
-36 56 -65 63 -66 9 0 12 25 12 95 0 78 -3 95 -15 95 -12 0 -15 -13 -15 -60 0
-33 -3 -60 -7 -60 -5 0 -28 27 -51 60 -62 86 -72 81 -72 -35z"/>
<path d="M2647 1413 c-4 -3 -7 -46 -7 -95 l0 -88 45 0 c78 0 125 36 125 95 0
37 -16 62 -50 80 -29 15 -101 21 -113 8z m111 -39 c50 -35 14 -114 -53 -114
l-35 0 0 65 0 65 33 0 c18 0 43 -7 55 -16z"/>
<path d="M2860 1325 l0 -95 70 0 c56 0 70 3 70 15 0 12 -13 15 -56 15 -54 0
-55 0 -52 28 3 25 7 27 51 30 63 4 61 22 -3 22 -47 0 -50 2 -50 25 0 24 3 25
55 25 42 0 55 3 55 15 0 12 -14 15 -70 15 l-70 0 0 -95z"/>
<path d="M3040 1414 c0 -3 13 -24 29 -47 l29 -42 -25 -30 c-40 -50 -46 -65
-26 -65 10 0 29 17 42 37 l24 37 19 -24 c10 -13 22 -30 27 -38 4 -8 16 -12 25
-11 15 3 12 11 -17 48 l-35 45 29 42 c33 49 35 54 14 54 -9 0 -24 -13 -33 -30
-21 -38 -33 -38 -55 0 -16 26 -47 42 -47 24z"/>
<path d="M3263 1342 c-18 -42 -35 -85 -39 -94 -10 -27 19 -22 31 5 8 17 20 23
52 25 38 3 44 0 55 -22 6 -14 18 -26 25 -26 17 0 12 19 -28 108 -16 34 -29 67
-29 72 0 6 -8 10 -17 10 -13 0 -28 -23 -50 -78z m66 -3 c6 -18 11 -34 11 -35
0 -2 -13 -4 -30 -4 -16 0 -30 2 -30 4 0 14 24 66 30 66 4 0 13 -14 19 -31z"/>
<path d="M3440 1325 l0 -95 40 0 c90 0 139 46 125 118 -8 44 -54 72 -117 72
l-48 0 0 -95z m120 45 c43 -43 10 -110 -55 -110 l-35 0 0 65 0 65 35 0 c22 0
43 -8 55 -20z"/>
<path d="M3683 1396 c-23 -20 -28 -32 -28 -71 0 -39 5 -51 28 -71 76 -65 188
8 157 102 -6 19 -21 41 -33 49 -33 23 -91 19 -124 -9z m91 -7 c35 -16 51 -58
35 -93 -21 -46 -93 -49 -118 -5 -19 34 -8 75 27 93 33 19 27 18 56 5z"/>
<path d="M3903 1394 c-24 -37 -12 -54 62 -86 41 -18 39 -42 -3 -46 -18 -2 -39
2 -47 8 -10 8 -15 8 -21 -1 -11 -18 25 -39 66 -39 41 0 70 24 70 58 0 22 -34
52 -60 52 -9 0 -25 6 -36 14 -18 14 -18 16 -1 33 14 15 22 16 47 6 20 -8 32
-8 36 -1 10 15 -16 28 -58 28 -29 0 -41 -6 -55 -26z"/>
</g>
</svg>
